<svg width="1200" height="900" viewBox="0 0 1200 900" fill="none" xmlns="http://www.w3.org/2000/svg">
  <rect width="1200" height="900" rx="48" fill="#F8F4F1"/>
  <rect x="171" y="162" width="330" height="576" rx="36" fill="#FFFCFA" stroke="#E4DDD9" stroke-width="4"/>
  <rect x="699" y="162" width="330" height="576" rx="36" fill="#FFFCFA" stroke="#E4DDD9" stroke-width="4"/>
  <rect x="213" y="226" width="246" height="166" rx="24" fill="#E8D7DA"/>
  <rect x="741" y="226" width="246" height="166" rx="24" fill="#D8E4EE"/>
  <rect x="213" y="436" width="200" height="18" rx="9" fill="#D7DDE3"/>
  <rect x="213" y="472" width="166" height="18" rx="9" fill="#E7D5D9"/>
  <rect x="741" y="436" width="200" height="18" rx="9" fill="#D7DDE3"/>
  <rect x="741" y="472" width="166" height="18" rx="9" fill="#E7D5D9"/>
  <path d="M540 445C564.333 412.333 585.333 396 603 396C620.667 396 641.667 412.333 666 445" stroke="#C7B6BC" stroke-width="10" stroke-linecap="round"/>
  <path d="M577 419C577 403.536 589.536 391 605 391C620.464 391 633 403.536 633 419V470H577V419Z" fill="#F0E2E6"/>
  <text x="600" y="792" text-anchor="middle" fill="#7F8793" font-size="44" font-family="Microsoft YaHei, sans-serif">替换为截图或异地回忆</text>
</svg>
